{
    "asset" : {
        "generator" : "Khronos glTF Blender I/O v1.8.19",
        "version" : "2.0"
    },
    "scene" : 0,
    "scenes" : [
        {
            "name" : "Scene",
            "nodes" : [
                0
            ]
        }
    ],
    "nodes" : [
        {
            "mesh" : 0,
            "name" : "Index 2"
        }
    ],
    "meshes" : [
        {
            "name" : "Cube.004",
            "primitives" : [
                {
                    "attributes" : {
                        "POSITION" : 0,
                        "NORMAL" : 1,
                        "TEXCOORD_0" : 2
                    },
                    "indices" : 3
                }
            ]
        }
    ],
    "accessors" : [
        {
            "bufferView" : 0,
            "componentType" : 5126,
            "count" : 1568,
            "max" : [
                1.423254370689392,
                0.5523161888122559,
                1.999290943145752
            ],
            "min" : [
                -1.4196141958236694,
                -0.4517710506916046,
                -2.2726187705993652
            ],
            "type" : "VEC3"
        },
        {
            "bufferView" : 1,
            "componentType" : 5126,
            "count" : 1568,
            "type" : "VEC3"
        },
        {
            "bufferView" : 2,
            "componentType" : 5126,
            "count" : 1568,
            "type" : "VEC2"
        },
        {
            "bufferView" : 3,
            "componentType" : 5123,
            "count" : 1818,
            "type" : "SCALAR"
        }
    ],
    "bufferViews" : [
        {
            "buffer" : 0,
            "byteLength" : 18816,
            "byteOffset" : 0
        },
        {
            "buffer" : 0,
            "byteLength" : 18816,
            "byteOffset" : 18816
        },
        {
            "buffer" : 0,
            "byteLength" : 12544,
            "byteOffset" : 37632
        },
        {
            "buffer" : 0,
            "byteLength" : 3636,
            "byteOffset" : 50176
        }
    ],
    "buffers" : [
        {
            "byteLength" : 53812,
            "uri" : "data:application/octet-stream;base64,"
        }
    ]
}
