{
    "asset" : {
        "generator" : "Khronos glTF Blender I/O v1.8.19",
        "version" : "2.0"
    },
    "scene" : 0,
    "scenes" : [
        {
            "name" : "Scene",
            "nodes" : [
                0
            ]
        }
    ],
    "nodes" : [
        {
            "mesh" : 0,
            "name" : "Index 2"
        }
    ],
    "meshes" : [
        {
            "name" : "Cube.004",
            "primitives" : [
                {
                    "attributes" : {
                        "POSITION" : 0,
                        "NORMAL" : 1,
                        "TEXCOORD_0" : 2
                    },
                    "indices" : 3
                }
            ]
        }
    ],
    "accessors" : [
        {
            "bufferView" : 0,
            "componentType" : 5126,
            "count" : 2094,
            "max" : [
                0.07013199478387833,
                0.026964539662003517,
                0.09771612286567688
            ],
            "min" : [
                -0.06969442963600159,
                -0.021686676889657974,
                -0.11012156307697296
            ],
            "type" : "VEC3"
        },
        {
            "bufferView" : 1,
            "componentType" : 5126,
            "count" : 2094,
            "type" : "VEC3"
        },
        {
            "bufferView" : 2,
            "componentType" : 5126,
            "count" : 2094,
            "type" : "VEC2"
        },
        {
            "bufferView" : 3,
            "componentType" : 5123,
            "count" : 2310,
            "type" : "SCALAR"
        }
    ],
    "bufferViews" : [
        {
            "buffer" : 0,
            "byteLength" : 25128,
            "byteOffset" : 0
        },
        {
            "buffer" : 0,
            "byteLength" : 25128,
            "byteOffset" : 25128
        },
        {
            "buffer" : 0,
            "byteLength" : 16752,
            "byteOffset" : 50256
        },
        {
            "buffer" : 0,
            "byteLength" : 4620,
            "byteOffset" : 67008
        }
    ],
    "buffers" : [
        {
            "byteLength" : 71628,
            "uri" : "data:application/octet-stream;base64,"
        }
    ]
}
